<?xml version="1.0" encoding="UTF-8"?>
<svg version="1.1" xmlns="http://www.w3.org/2000/svg" width="512" height="512">
<path d="M0 0 C165.66 0 331.32 0 502 0 C502 111.54 502 223.08 502 338 C336.34 338 170.68 338 0 338 C0 226.46 0 114.92 0 0 Z " fill="#BA0D1D" transform="translate(5,87)"/>
<path d="M0 0 C68.64 0 137.28 0 208 0 C204.36231607 7.27536787 200.79331945 14.31119633 196.625 21.25 C196.17511719 22.00667969 195.72523438 22.76335937 195.26171875 23.54296875 C194.17820194 25.36419914 193.08967141 27.18244532 192 29 C192.99 29.33 193.98 29.66 195 30 C195.61258667 28.87972412 195.61258667 28.87972412 196.23754883 27.73681641 C197.7581374 24.96421973 199.28517041 22.19530433 200.81665039 19.42871094 C201.47778181 18.23125104 202.13633548 17.03236413 202.79223633 15.83203125 C203.73618353 14.10562971 204.69023391 12.38476444 205.64453125 10.6640625 C206.21534424 9.62717285 206.78615723 8.5902832 207.37426758 7.52197266 C209 5 209 5 212 3 C212.58007812 3.92941406 213.16015625 4.85882813 213.7578125 5.81640625 C221.10869663 17.50202226 227.17704413 26.27405122 240.625 31.375 C250.5659066 33.21590863 257.68219048 30.61699696 266 25 C272.46571303 19.47561872 276.62194812 12.72144962 280.58984375 5.2734375 C281.05519531 4.52320313 281.52054687 3.77296875 282 3 C282.66 3 283.32 3 284 3 C284.27674561 3.50337891 284.55349121 4.00675781 284.83862305 4.52539062 C286.11924101 6.85155786 287.40335055 9.17578057 288.6875 11.5 C289.12255859 12.29148437 289.55761719 13.08296875 290.00585938 13.8984375 C292.55347263 18.50301256 295.20360898 22.98938646 298.09301758 27.38867188 C299 29 299 29 299 31 C300.485 30.01 300.485 30.01 302 29 C301.5153125 28.15703369 301.030625 27.31406738 300.53125 26.44555664 C298.74002285 23.32895768 296.95161116 20.21075102 295.1640625 17.09204102 C294.3887934 15.74036063 293.61275302 14.38912233 292.8359375 13.03833008 C291.72194427 11.10091965 290.61070004 9.16195603 289.5 7.22265625 C289.15001953 6.61535172 288.80003906 6.00804718 288.43945312 5.38233948 C286 1.11387171 286 1.11387171 286 0 C354.64 0 423.28 0 494 0 C494 32.34 494 64.68 494 98 C330.98 98 167.96 98 0 98 C0 65.66 0 33.32 0 0 Z " fill="#076529" transform="translate(9,322)"/>
<path d="M0 0 C163.02 0 326.04 0 494 0 C494 32.67 494 65.34 494 99 C426.35 99 358.7 99 289 99 C292 94 292 94 294.90625 92.14453125 C298.75551154 89.47629314 300.34480854 86.75934053 302.5 82.6875 C302.88164307 81.98544434 303.26328613 81.28338867 303.65649414 80.56005859 C308.95677636 70.59316291 313.46238023 60.26704138 315 49 C301.6770288 61.3024883 290.0897638 76.26974936 286.54296875 94.34765625 C286 97 286 97 285 99 C284.34 99 283.68 99 283 99 C282.6596875 98.24976563 282.319375 97.49953125 281.96875 96.7265625 C276.54018674 85.26305392 269.4414557 74.42951412 257.59375 68.87109375 C250.06405489 66.21425513 242.22293949 66.29674911 234.875 69.5625 C223.65926015 76.0269692 216.44865981 86.47508606 211 98 C210.01 97.67 209.02 97.34 208 97 C207.1484375 94.1484375 207.1484375 94.1484375 206.375 90.375 C202.51663181 73.99517223 191.02165638 60.3258692 179 49 C181.40588389 63.18469045 187.68384263 83.05988184 198.95703125 92.66796875 C200.61186536 93.81725272 202.30301028 94.91392658 204 96 C204.33 96.99 204.66 97.98 205 99 C137.35 99 69.7 99 0 99 C0 66.33 0 33.66 0 0 Z " fill="#010101" transform="translate(9,91)"/>
<path d="M0 0 C165.66 0 331.32 0 502 0 C502 111.54 502 223.08 502 338 C336.34 338 170.68 338 0 338 C0 226.46 0 114.92 0 0 Z M4 4 C4 36.67 4 69.34 4 103 C71.65 103 139.3 103 209 103 C207.3646726 98.89564751 207.3646726 98.89564751 204.1171875 97.09765625 C196.19784371 91.76847377 192.28589831 80.84365545 188.625 72.3125 C188.29129395 71.54156006 187.95758789 70.77062012 187.61376953 69.97631836 C185.32009996 64.42021338 183.98733203 58.92321475 183 53 C197.33744182 66.23925479 208.30318493 81.61166774 212 101 C212.32248257 102.33599921 212.65086312 103.67071736 213 105 C212.01 105 211.02 105 210 105 C210.04125 106.010625 210.0825 107.02125 210.125 108.0625 C210 112 210 112 208 119 C140.68 119.33 73.36 119.66 4 120 C4 152.34 4 184.68 4 218 C71.32 218.33 138.64 218.66 208 219 C214 235 214 235 213 240 C212.01319833 242.01959322 210.95181902 244.00356118 209.83984375 245.95703125 C209.21142578 247.06884766 208.58300781 248.18066406 207.93554688 249.32617188 C207.26968046 250.48836675 206.60366294 251.65047506 205.9375 252.8125 C205.26694627 253.99378217 204.59701769 255.17541945 203.92773438 256.35742188 C202.29127213 259.24183374 200.64851754 262.1224665 199 265 C198.01 264.67 197.02 264.34 196 264 C196.72703125 262.73555054 196.72703125 262.73555054 197.46875 261.44555664 C199.25997715 258.32895768 201.04838884 255.21075102 202.8359375 252.09204102 C203.6112066 250.74036063 204.38724698 249.38912233 205.1640625 248.03833008 C206.27805573 246.10091965 207.38929996 244.16195603 208.5 242.22265625 C208.84998047 241.61535172 209.19996094 241.00804718 209.56054688 240.38233948 C211.26956628 237.84609141 211.26956628 237.84609141 212 235 C143.36 235 74.72 235 4 235 C4 267.34 4 299.68 4 333 C167.02 333 330.04 333 498 333 C498 300.66 498 268.32 498 235 C429.36 235 360.72 235 290 235 C293.63768393 242.27536787 297.20668055 249.31119633 301.375 256.25 C302.04982422 257.38501953 302.04982422 257.38501953 302.73828125 258.54296875 C303.82179806 260.36419914 304.91032859 262.18244532 306 264 C305.01 264.66 304.02 265.32 303 266 C302.60010864 264.92782227 302.60010864 264.92782227 302.19213867 263.83398438 C300.9726527 260.93498926 299.53702642 258.35566804 297.92578125 255.65625 C297.04889648 254.15771484 297.04889648 254.15771484 296.15429688 252.62890625 C294.92340602 250.53782763 293.68375859 248.45187956 292.43554688 246.37109375 C291.85482422 245.37207031 291.27410156 244.37304688 290.67578125 243.34375 C290.13864502 242.43818359 289.60150879 241.53261719 289.0480957 240.59960938 C286.39619507 234.02205569 292.08620002 224.35863995 294 219 C361.32 218.67 428.64 218.34 498 218 C498 185.66 498 153.32 498 120 C430.68 119.67 363.36 119.34 294 119 C293.01 115.04 292.02 111.08 291 107 C290.34 107 289.68 107 289 107 C292.5246813 84.7335037 302.56509126 68.48369216 319 53 C317.08265426 67.0495162 310.17919593 86.12373725 299.6796875 96.234375 C297.5 97.8125 297.5 97.8125 295.53125 98.95703125 C293.662045 100.00375951 293.662045 100.00375951 293 103 C360.65 103 428.3 103 498 103 C498 70.33 498 37.66 498 4 C334.98 4 171.96 4 4 4 Z " fill="#D1D0CC" transform="translate(5,87)"/>
<path d="M0 0 C67.65 0 135.3 0 205 0 C205 32.34 205 64.68 205 98 C137.35 98 69.7 98 0 98 C-7.85476631 64.61724318 -8.31153037 33.24612147 0 0 Z " fill="#BA0D1D" transform="translate(298,207)"/>
<path d="M0 0 C12.47213234 0.52075709 20.51130553 4.79335625 29 14 C41 29.98446602 41 29.98446602 41 37 C41.66 37 42.32 37 43 37 C46.00113781 45.4590894 46.2250707 51.83650288 43.75097656 60.29467773 C40.23028811 72.40638399 39.65861235 84.77427259 39.75 97.3125 C39.75310181 97.9859848 39.75620361 98.6594696 39.75939941 99.35336304 C39.80209276 117.59151867 39.80209276 117.59151867 43.26953125 135.4140625 C47.41396639 149.58852113 43.84075552 158.9663083 37.0546875 171.734375 C29.91587242 184.04666336 21.7137537 193.41356189 8 198 C5.28005243 198.21471692 2.73542096 198.13781968 0 198 C-10.00553175 168.5944296 -9.08605919 139.51816183 0 110 C-0.66 110 -1.32 110 -2 110 C-5.55360764 104.52152156 -5.73066438 99.3260153 -5 93 C-3.625 89.8125 -3.625 89.8125 -2 88 C-1.34 88 -0.68 88 0 88 C-0.33773437 86.80503906 -0.67546875 85.61007813 -1.0234375 84.37890625 C-1.47408539 82.77347316 -1.92459902 81.16800238 -2.375 79.5625 C-2.59671875 78.77939453 -2.8184375 77.99628906 -3.046875 77.18945312 C-3.71619918 74.79760348 -4.35829802 72.39938588 -5 70 C-5.19779053 69.33291016 -5.39558105 68.66582031 -5.59936523 67.97851562 C-7.47534966 60.96856755 -7.33689868 53.82095061 -7.31567383 46.61865234 C-7.31253565 44.40020529 -7.33595805 42.1831247 -7.36132812 39.96484375 C-7.42400545 25.90351257 -4.86157864 13.25212044 0 0 Z " fill="#BA0F1E" transform="translate(253,157)"/>
<path d="M0 0 C1.41252534 4.48746528 0.1019846 7.87432004 -1.375 12.1875 C-1.64175537 12.97543945 -1.90851074 13.76337891 -2.18334961 14.57519531 C-4.22983029 20.36040554 -6.70062209 25.82468172 -9.5625 31.25 C-10.10753174 32.28483521 -10.10753174 32.28483521 -10.66357422 33.34057617 C-14.0887514 39.58427689 -17.65538919 44.47521622 -24 48 C-24.33 48.66 -24.66 49.32 -25 50 C42.32 50.33 109.64 50.66 179 51 C179 56.28 179 61.56 179 67 C111.35 67 43.7 67 -26 67 C-28.25 59.125 -28.25 59.125 -28 55 C-28.66 55 -29.32 55 -30 55 C-30.625 53.25 -30.625 53.25 -31 51 C-30.690625 50.39414063 -30.38125 49.78828125 -30.0625 49.1640625 C-28.86544172 46.72593644 -28.66142505 44.81739544 -28.375 42.125 C-25.58251086 25.97152434 -11.51955738 10.7682819 0 0 Z " fill="#FEFEFE" transform="translate(324,139)"/>
<path d="M0 0 C9.0691026 7.33246593 15.85780646 15.35198674 21.9375 25.25 C22.41026367 26.01860352 22.88302734 26.78720703 23.37011719 27.57910156 C26.65697208 33.0762888 28.74164835 38.34262995 30.0625 44.625 C30.65836317 47.43195872 31.28920309 50.21971475 32 53 C31.01 53.66 30.02 54.32 29 55 C28.68249278 56.96854475 28.36964795 58.94202801 28.2109375 60.9296875 C28 63 28 63 27 67 C-40.65 67 -108.3 67 -178 67 C-178 61.72 -178 56.44 -178 51 C-110.68 50.67 -43.36 50.34 26 50 C23.9060168 47.9060168 21.80319873 45.81873567 19.625 43.8125 C9.84387107 33.332719 0 14.61874352 0 0 Z " fill="#FEFEFE" transform="translate(187,139)"/>
<path d="M0 0 C67.65 0 135.3 0 205 0 C211 16 211 16 210 21 C207.95125136 25.36796657 205.54298098 29.54090937 203.1875 33.75 C202.55111111 34.92300289 201.91504021 36.09617836 201.27929688 37.26953125 C200.66505859 38.37167969 200.05082031 39.47382813 199.41796875 40.609375 C198.57915161 42.1248291 198.57915161 42.1248291 197.72338867 43.67089844 C196 46 196 46 193.78637695 46.83691406 C193.19687256 46.89073242 192.60736816 46.94455078 192 47 C191.67 46.34 191.34 45.68 191 45 C196.28 35.76 201.56 26.52 207 17 C138.69 16.67 70.38 16.34 0 16 C0 10.72 0 5.44 0 0 Z " fill="#FDFDFD" transform="translate(9,306)"/>
<path d="M0 0 C67.65 0 135.3 0 205 0 C205 5.28 205 10.56 205 16 C136.69 16.33 68.38 16.66 -2 17 C3.28 26.24 8.56 35.48 14 45 C13.67 45.66 13.34 46.32 13 47 C12.01 47 11.02 47 10 47 C7.87290929 43.39405663 5.75533512 39.78274425 3.64624023 36.16625977 C2.92810156 34.93786893 2.20742651 33.71095712 1.48413086 32.4855957 C0.44227426 30.71953045 -0.59021228 28.94826982 -1.62109375 27.17578125 C-2.2442749 26.11270752 -2.86745605 25.04963379 -3.50952148 23.9543457 C-5 21 -5 21 -6 16 C-4.02 10.72 -2.04 5.44 0 0 Z " fill="#FEFEFE" transform="translate(298,306)"/>
<path d="M0 0 C1.98 0 3.96 0 6 0 C15.66047694 28.13731148 16.85346001 59.90221011 6 88 C6.99 88.33 7.98 88.66 9 89 C12.04433065 93.50031488 11.50397808 98.79473385 11 104 C8.89361702 109.55319149 8.89361702 109.55319149 6 111 C2.31987667 111.4000134 0.6510711 111.51029897 -2.3125 109.1875 C-5.98012721 104.43316843 -5.48624454 98.74271565 -5 93 C-3.625 89.8125 -3.625 89.8125 -2 88 C-1.34 88 -0.68 88 0 88 C-0.33773437 86.80503906 -0.67546875 85.61007813 -1.0234375 84.37890625 C-1.47408539 82.77347316 -1.92459902 81.16800238 -2.375 79.5625 C-2.59671875 78.77939453 -2.8184375 77.99628906 -3.046875 77.18945312 C-3.71619918 74.79760348 -4.35829802 72.39938588 -5 70 C-5.19779053 69.33291016 -5.39558105 68.66582031 -5.59936523 67.97851562 C-7.47534966 60.96856755 -7.33689868 53.82095061 -7.31567383 46.61865234 C-7.31253565 44.40020529 -7.33595805 42.1831247 -7.36132812 39.96484375 C-7.42400545 25.90351257 -4.86157864 13.25212044 0 0 Z " fill="#C02332" transform="translate(253,157)"/>
<path d="M0 0 C2.28240789 2.28240789 2.43900487 3.22811882 3.03515625 6.32421875 C3.28942383 7.62069336 3.28942383 7.62069336 3.54882812 8.94335938 C3.71833984 9.84892578 3.88785156 10.75449219 4.0625 11.6875 C4.23587891 12.57373047 4.40925781 13.45996094 4.58789062 14.37304688 C6.10739362 22.23836698 7.16170832 29.86537827 7.23828125 37.87890625 C7.25270012 39.14132393 7.25270012 39.14132393 7.26741028 40.429245 C7.29204284 43.14037139 7.30465786 45.85127486 7.3125 48.5625 C7.31578308 49.48196411 7.31906616 50.40142822 7.32244873 51.34875488 C7.34019246 66.66795615 7.33730621 82.72678782 1 97 C-13.14983411 70.77401436 -7.85816964 27.41999618 0 0 Z " fill="#070001" transform="translate(298,207)"/>
<path d="M0 0 C13.79308136 20.68962204 8.16210997 62.20616287 4 85 C3.17713963 89.04987209 2.19956634 93.04398333 1 97 C0.34 96.67 -0.32 96.34 -1 96 C-1.78125 93.3671875 -1.78125 93.3671875 -2.5 89.875 C-2.7371875 88.75867188 -2.974375 87.64234375 -3.21875 86.4921875 C-5.56217749 73.57229753 -6.40073694 61.03585743 -6.375 47.9375 C-6.37578552 47.08503693 -6.37657104 46.23257385 -6.37738037 45.35427856 C-6.36024667 29.80106745 -5.24636361 14.77016782 0 0 Z " fill="#050000" transform="translate(213,207)"/>
<path d="M0 0 C9.0691026 7.33246593 15.85780646 15.35198674 21.9375 25.25 C22.41026367 26.01860352 22.88302734 26.78720703 23.37011719 27.57910156 C26.65697208 33.0762888 28.74164835 38.34262995 30.0625 44.625 C30.65836317 47.43195872 31.28920309 50.21971475 32 53 C31.01 53.33 30.02 53.66 29 54 C28.34 53.67 27.68 53.34 27 53 C24.33005601 52.89212585 21.68549879 52.84509685 19.01486206 52.84178162 C18.18010853 52.83684364 17.345355 52.83190566 16.48530591 52.82681805 C13.67233493 52.81139065 10.85938686 52.80306828 8.04638672 52.79467773 C6.03626299 52.78510333 4.02614128 52.77509351 2.01602173 52.76467896 C-3.45474679 52.73757643 -8.92552397 52.71659588 -14.39632273 52.69667697 C-20.10854083 52.67485033 -25.82073204 52.64744543 -31.53292847 52.62062073 C-42.35596677 52.57064882 -53.17901997 52.52572671 -64.00208747 52.48259836 C-76.32114335 52.43326437 -88.64017225 52.37833204 -100.95920205 52.32291877 C-126.30610954 52.20902969 -151.6530429 52.10220578 -177 52 C-177 56.95 -177 61.9 -177 67 C-177.33 67 -177.66 67 -178 67 C-178 61.72 -178 56.44 -178 51 C-110.68 50.67 -43.36 50.34 26 50 C23.9060168 47.9060168 21.80319873 45.81873567 19.625 43.8125 C9.84387107 33.332719 0 14.61874352 0 0 Z " fill="#F7F7F6" transform="translate(187,139)"/>
<path d="M0 0 C1.41252534 4.48746528 0.1019846 7.87432004 -1.375 12.1875 C-1.64175537 12.97543945 -1.90851074 13.76337891 -2.18334961 14.57519531 C-4.22983029 20.36040554 -6.70062209 25.82468172 -9.5625 31.25 C-10.10753174 32.28483521 -10.10753174 32.28483521 -10.66357422 33.34057617 C-14.0887514 39.58427689 -17.65538919 44.47521622 -24 48 C-24.33 48.66 -24.66 49.32 -25 50 C42.32 50.33 109.64 50.66 179 51 C179 51.33 179 51.66 179 52 C111.35 52.33 43.7 52.66 -26 53 C-26.33 53.66 -26.66 54.32 -27 55 C-27.99 55 -28.98 55 -30 55 C-30.625 53.25 -30.625 53.25 -31 51 C-30.690625 50.39414063 -30.38125 49.78828125 -30.0625 49.1640625 C-28.86544172 46.72593644 -28.66142505 44.81739544 -28.375 42.125 C-25.58251086 25.97152434 -11.51955738 10.7682819 0 0 Z " fill="#F6F6F5" transform="translate(324,139)"/>
<path d="M0 0 C0.33 0 0.66 0 1 0 C1 28.05 1 56.1 1 85 C-1.64171022 82.35828978 -2.00753302 80.03131599 -3 76.4375 C-3.33 75.26058594 -3.66 74.08367187 -4 72.87109375 C-4.33 71.59363281 -4.66 70.31617188 -5 69 C-5.18457764 68.37706055 -5.36915527 67.75412109 -5.55932617 67.11230469 C-7.45236127 60.04790729 -7.33706285 52.87665918 -7.31567383 45.61865234 C-7.31253565 43.40020529 -7.33595805 41.1831247 -7.36132812 38.96484375 C-7.42243628 25.25478572 -5.23168457 12.77380852 0 0 Z " fill="#FDF9FA" transform="translate(253,158)"/>
<path d="M0 0 C2.87425092 3.83233456 3.85569107 6.11745411 5.125 10.625 C5.45757812 11.77226562 5.79015625 12.91953125 6.1328125 14.1015625 C11.2762872 37.22402983 9.2358907 62.92614067 1 85 C0.67 85 0.34 85 0 85 C0 56.95 0 28.9 0 0 Z " fill="#FDFAFB" transform="translate(258,269)"/>
<path d="M0 0 C10.09553735 10.09553735 8.24774966 32.98281531 8.25097656 45.82348633 C8.13818498 59.40205431 7.11950105 72.63674407 1 85 C0.67 85 0.34 85 0 85 C0 56.95 0 28.9 0 0 Z " fill="#FDFBFB" transform="translate(258,158)"/>
<path d="M0 0 C0.33 0 0.66 0 1 0 C1 28.05 1 56.1 1 85 C-10.43388392 67.84917412 -9.4999836 38.27176198 -5.6875 18.875 C-2.58455882 5.16911765 -2.58455882 5.16911765 0 0 Z " fill="#FEFBFB" transform="translate(253,269)"/>
<path d="M0 0 C1.98 0 3.96 0 6 0 C5.67 28.38 5.34 56.76 5 86 C5.99 86.33 6.98 86.66 8 87 C5.36 87 2.72 87 0 87 C0 58.29 0 29.58 0 0 Z " fill="#BF2432" transform="translate(253,268)"/>
<path d="M0 0 C103.95 0.495 103.95 0.495 210 1 C210 1.33 210 1.66 210 2 C141.69 2.33 73.38 2.66 3 3 C8.28 12.24 13.56 21.48 19 31 C18.67 31.66 18.34 32.32 18 33 C17.01 33 16.02 33 15 33 C12.87290929 29.39405663 10.75533512 25.78274425 8.64624023 22.16625977 C7.92810156 20.93786893 7.20742651 19.71095712 6.48413086 18.4855957 C5.44227426 16.71953045 4.40978772 14.94826982 3.37890625 13.17578125 C2.7557251 12.11270752 2.13254395 11.04963379 1.49047852 9.9543457 C0.09823003 7.19470624 -0.69049358 5.06201014 -1 2 C-0.67 1.34 -0.34 0.68 0 0 Z " fill="#E9EEEA" transform="translate(293,320)"/>
<path d="M0 0 C2.30275556 1.8670991 3.67823871 3.35647741 5 6 C5.53128266 12.2527882 5.66244439 17.64719667 2 23 C-0.84083641 24.42041821 -2.85477278 24.31452272 -6 24 C-8.84780619 21.76793569 -9.84997666 20.45007001 -11 17 C-11.40134564 12.01405224 -11.65982444 7.49960101 -9.625 2.875 C-6.74757356 -0.44510743 -4.26062514 -0.42606251 0 0 Z " fill="#FDFAFB" transform="translate(259,244)"/>
<path d="M0 0 C-0.96790405 6.6227411 -4.58800651 11.98804077 -7.8125 17.75 C-8.44888889 18.92300289 -9.08495979 20.09617836 -9.72070312 21.26953125 C-10.64206055 22.92275391 -10.64206055 22.92275391 -11.58203125 24.609375 C-12.14124268 25.61967773 -12.7004541 26.62998047 -13.27661133 27.67089844 C-15 30 -15 30 -17.21362305 30.83691406 C-17.80312744 30.89073242 -18.39263184 30.94455078 -19 31 C-19.33 30.34 -19.66 29.68 -20 29 C-18.9644166 26.82357469 -17.87794451 24.79237368 -16.66796875 22.71484375 C-16.31616043 22.09855606 -15.96435211 21.48226837 -15.60188293 20.8473053 C-14.85491133 19.5430349 -14.10395267 18.2410412 -13.34936523 16.94116211 C-12.19335566 14.94759821 -11.05186743 12.94624953 -9.91210938 10.94335938 C-9.18574743 9.67919781 -8.45856105 8.41550951 -7.73046875 7.15234375 C-7.3876738 6.55131332 -7.04487885 5.9502829 -6.69169617 5.33103943 C-3.57987614 0 -3.57987614 0 0 0 Z " fill="#F3F3F3" transform="translate(220,322)"/>
<path d="M0 0 C1.75463867 0.11547852 1.75463867 0.11547852 4 1 C5.4926436 3.04188232 6.71007092 4.95463068 7.92578125 7.15234375 C8.27762985 7.76767471 8.62947845 8.38300568 8.99198914 9.01698303 C9.73173267 10.31730469 10.46514317 11.62124676 11.19262695 12.9284668 C12.31113366 14.93504881 13.45158534 16.92785428 14.59570312 18.91992188 C15.31122994 20.18414168 16.0254679 21.44909201 16.73828125 22.71484375 C17.25217155 23.61335304 17.25217155 23.61335304 17.77644348 24.53001404 C18.58051345 25.98703617 19.2990499 27.49065876 20 29 C19.67 29.66 19.34 30.32 19 31 C18.01 31 17.02 31 16 31 C13.87290929 27.39405663 11.75533512 23.78274425 9.64624023 20.16625977 C8.92810156 18.93786893 8.20742651 17.71095712 7.48413086 16.4855957 C6.44227426 14.71953045 5.40978772 12.94826982 4.37890625 11.17578125 C3.7557251 10.11270752 3.13254395 9.04963379 2.49047852 7.9543457 C1.1100209 5.21807746 0.41219037 3.01703842 0 0 Z " fill="#F4F4F4" transform="translate(292,322)"/>
</svg>
